<svg width="1373" height="842" viewBox="0 0 1373 842" fill="none" xmlns="http://www.w3.org/2000/svg">
<path d="M1028.44 842C1019.56 842 1015.12 838.744 1015.12 832.23C1015.12 825.717 1018.97 822.164 1026.67 821.572L1039.1 819.796C1051.54 818.019 1059.53 814.467 1063.08 809.138C1067.23 803.808 1069.3 794.927 1069.3 782.492V301.983C1069.3 291.325 1067.53 284.22 1063.97 280.667C1061.01 276.522 1055.39 273.858 1047.1 272.673L1028.44 270.009C1020.75 269.417 1016.9 266.16 1016.9 260.239C1016.9 255.502 1021.64 252.245 1031.11 250.469C1049.47 247.508 1063.38 242.771 1072.85 236.258C1082.92 229.744 1093.28 221.751 1103.94 212.277C1109.27 206.948 1113.71 204.283 1117.26 204.283C1122.59 204.283 1125.26 207.836 1125.26 214.941V242.475C1125.26 246.62 1127.03 249.581 1130.59 251.357C1134.14 252.541 1138.28 250.765 1143.02 246.028L1152.79 236.258C1164.63 224.415 1176.77 215.829 1189.21 210.5C1201.64 204.579 1215.85 201.619 1231.84 201.619C1259.08 201.619 1283.06 210.796 1303.78 229.152C1325.1 246.916 1341.68 271.785 1353.52 303.76C1365.96 335.735 1372.17 373.334 1372.17 416.559C1372.17 465.706 1364.48 509.227 1349.08 547.123C1333.68 585.019 1312.37 614.625 1285.13 635.941C1258.48 657.258 1227.69 667.916 1192.76 667.916C1175 667.916 1159.3 664.659 1145.69 658.146C1135.03 653.409 1129.7 656.666 1129.7 667.916V782.492C1129.7 794.927 1131.47 803.216 1135.03 807.361C1139.17 812.098 1147.46 815.355 1159.9 817.131L1192.76 821.572C1199.27 822.756 1202.53 826.013 1202.53 831.342C1202.53 838.448 1198.09 842 1189.21 842H1028.44ZM1195.42 645.711C1228.58 645.711 1255.23 626.171 1275.36 587.091C1296.08 548.011 1306.45 495.312 1306.45 428.994C1306.45 368.005 1297.57 321.524 1279.8 289.549C1262.04 257.574 1236.87 241.587 1204.31 241.587C1184.17 241.587 1166.71 249.877 1151.9 266.456C1137.1 283.036 1129.7 306.128 1129.7 335.735V559.557C1129.7 586.203 1135.62 607.223 1147.46 622.619C1159.9 638.014 1175.88 645.711 1195.42 645.711Z" fill="white"/>
<path d="M952.366 122.569C939.932 122.569 929.273 118.128 920.392 109.246C912.102 100.365 907.957 89.1142 907.957 75.4953C907.957 61.8765 912.102 50.9222 920.392 42.6325C929.273 33.7506 939.932 29.3097 952.366 29.3097C964.801 29.3097 975.163 33.7506 983.453 42.6325C991.742 50.9222 995.887 61.8765 995.887 75.4953C995.887 89.1142 991.742 100.365 983.453 109.246C975.163 118.128 964.801 122.569 952.366 122.569ZM877.759 659.922C868.877 659.922 864.436 656.665 864.436 650.151C864.436 644.822 868.285 641.27 875.982 639.493L886.64 637.717C901.444 635.348 910.918 631.796 915.062 627.059C919.207 621.73 921.28 612.848 921.28 600.413V301.983C921.28 291.324 919.503 284.219 915.951 280.666C912.99 276.521 907.365 273.857 899.075 272.673L880.423 270.008C872.726 269.416 868.877 266.159 868.877 260.238C868.877 255.501 873.614 252.244 883.088 250.468C901.444 247.507 916.247 242.77 927.497 236.257C938.747 229.744 949.702 221.75 960.36 212.276C965.689 206.947 970.13 204.282 973.683 204.282C979.012 204.282 981.676 207.835 981.676 214.94V600.413C981.676 612.848 983.453 621.73 987.005 627.059C990.558 632.388 997.368 635.644 1007.43 636.829L1029.64 639.493C1036.15 640.678 1039.41 643.934 1039.41 649.263C1039.41 656.369 1034.97 659.922 1026.09 659.922H877.759Z" fill="white"/>
<path d="M718.127 659.922C711.022 659.922 707.469 656.665 707.469 650.152C707.469 644.23 710.726 640.678 717.239 639.493L729.674 637.717C742.108 635.941 751.286 632.388 757.208 627.059C763.129 621.73 766.089 612.848 766.089 600.413V91.4827C766.089 80.8245 764.313 73.4229 760.76 69.2781C757.8 65.1332 752.175 62.7647 743.885 62.1726L723.457 59.508C716.943 58.3238 713.687 54.7711 713.687 48.8498C713.687 42.9286 716.943 39.3758 723.457 38.1916C740.036 34.6388 754.247 30.494 766.089 25.757C777.932 21.02 787.702 16.283 795.4 11.546C804.874 5.6248 811.979 2.66418 816.716 2.66418C823.229 2.66418 826.486 7.40117 826.486 16.8751V600.413C826.486 612.848 828.263 621.73 831.815 627.059C835.96 631.796 844.25 635.052 856.684 636.829L877.113 639.493C883.626 640.678 886.883 644.23 886.883 650.152C886.883 656.665 883.33 659.922 876.225 659.922H718.127Z" fill="white"/>
<path d="M629.961 667.916C599.763 667.916 575.19 643.343 556.242 594.196L507.391 465.409C501.47 451.198 494.069 444.093 485.187 444.093C476.305 444.093 468.607 451.494 462.094 466.298C456.173 479.324 449.659 497.088 442.554 519.589C436.04 541.497 429.823 565.478 423.902 591.532L410.579 650.152C408.803 656.665 404.658 659.922 398.144 659.922H363.505C355.216 659.922 351.959 656.073 353.735 648.376L483.41 91.4831C485.779 81.417 485.779 74.3115 483.41 70.1667C481.042 65.4297 475.713 62.7651 467.423 62.173L440.777 59.5084C431.896 58.3242 428.047 54.4754 429.231 47.962C430.415 42.6329 434.56 39.3762 441.666 38.192C467.127 34.0471 487.555 29.3101 502.95 23.981C518.346 18.6519 530.188 12.4346 538.478 5.3291C543.215 1.77637 547.36 0 550.912 0C558.61 0 561.571 4.44092 559.794 13.3228L477.193 365.044C476.601 369.189 477.489 371.558 479.858 372.15C482.226 372.742 484.299 371.262 486.075 367.709L515.385 315.306C558.018 239.514 605.98 201.618 659.271 201.618C679.403 201.618 695.391 206.947 707.233 217.605C719.076 228.264 724.997 242.771 724.997 261.127C724.997 290.141 710.786 319.155 682.364 348.169C654.534 377.183 617.822 400.868 572.229 419.224C558.018 424.553 553.873 434.027 559.794 447.646L611.309 579.097C617.23 593.9 623.152 604.558 629.073 611.072C634.994 616.993 642.396 619.954 651.277 619.954C664.896 619.954 675.258 611.664 682.364 595.084C689.469 577.913 695.687 548.307 701.016 506.266C702.2 498.568 705.753 494.719 711.674 494.719C718.187 494.719 721.148 500.641 720.556 512.483C717.595 562.222 708.121 600.71 692.134 627.947C676.739 654.593 656.014 667.916 629.961 667.916ZM494.069 404.125C491.7 409.454 491.404 413.599 493.18 416.559C495.549 418.928 499.398 419.52 504.727 418.336C553.873 405.901 593.545 385.473 623.744 357.051C653.942 328.629 669.041 297.246 669.041 262.903C669.041 240.402 660.455 229.152 643.284 229.152C623.152 229.152 599.763 244.843 573.117 276.226C546.472 307.016 520.122 349.649 494.069 404.125Z" fill="white"/>
<path d="M219.203 667.916C175.386 667.916 136.898 654.297 103.739 627.059C71.1721 599.822 45.7108 561.63 27.355 512.483C9.59127 462.745 0.709412 404.125 0.709412 336.623C0.709412 271.489 10.4795 214.645 30.0195 166.091C50.1518 116.945 76.7973 79.0487 109.956 52.4032C143.707 25.1655 181.011 11.5466 221.868 11.5466C246.145 11.5466 267.461 13.9151 285.817 18.6521C304.173 22.797 320.456 28.4222 334.667 35.5277C341.773 39.6725 345.325 45.8898 345.325 54.1795L347.99 189.184C347.99 199.25 344.437 204.283 337.332 204.283C330.818 204.283 326.674 200.434 324.897 192.736L316.015 159.874C303.581 113.688 289.074 81.7133 272.494 63.9496C256.507 46.1859 237.263 37.304 214.762 37.304C173.314 37.304 138.674 63.0614 110.844 114.576C83.6067 165.499 69.9879 239.514 69.9879 336.623C69.9879 402.94 76.7973 458.896 90.4162 504.49C104.627 550.083 122.687 584.426 144.595 607.519C167.096 630.612 190.781 642.158 215.65 642.158C242.296 642.158 263.612 633.869 279.6 617.289C296.179 600.71 310.094 568.735 321.344 521.365L332.003 477.844C333.779 468.962 338.516 465.113 346.214 466.298C352.727 467.482 355.984 472.515 355.984 481.397L352.431 625.283C352.431 633.573 348.582 639.79 340.885 643.935C326.674 651.04 309.798 656.665 290.258 660.81C271.31 665.547 247.625 667.916 219.203 667.916Z" fill="white"/>
</svg>
