<svg width="1223" height="751" viewBox="0 0 1223 751" fill="none" xmlns="http://www.w3.org/2000/svg">
<path d="M915.756 750.258C907.842 750.258 903.885 747.356 903.885 741.552C903.885 735.749 907.314 732.583 914.173 732.056L925.253 730.473C936.333 728.89 943.455 725.724 946.621 720.976C950.314 716.227 952.161 708.313 952.161 697.234V269.08C952.161 259.583 950.578 253.252 947.412 250.086C944.774 246.393 939.762 244.019 932.375 242.963L915.756 240.589C908.897 240.061 905.467 237.16 905.467 231.884C905.467 227.663 909.688 224.761 918.13 223.178C934.486 220.54 946.885 216.319 955.326 210.515C964.296 204.712 973.529 197.589 983.026 189.147C987.774 184.399 991.731 182.025 994.897 182.025C999.645 182.025 1002.02 185.19 1002.02 191.522V216.055C1002.02 219.749 1003.6 222.387 1006.77 223.969C1009.93 225.025 1013.63 223.442 1017.85 219.221L1026.55 210.515C1037.11 199.963 1047.92 192.313 1059 187.564C1070.08 182.288 1082.74 179.65 1096.99 179.65C1121.26 179.65 1142.63 187.828 1161.09 204.184C1180.09 220.012 1194.86 242.172 1205.41 270.663C1216.49 299.154 1222.03 332.657 1222.03 371.172C1222.03 414.963 1215.17 453.743 1201.46 487.509C1187.74 521.276 1168.74 547.657 1144.47 566.651C1120.73 585.644 1093.3 595.141 1062.17 595.141C1046.34 595.141 1032.36 592.24 1020.22 586.436C1010.73 582.215 1005.98 585.117 1005.98 595.141V697.234C1005.98 708.313 1007.56 715.7 1010.73 719.393C1014.42 723.614 1021.8 726.516 1032.88 728.099L1062.17 732.056C1067.97 733.111 1070.87 736.013 1070.87 740.761C1070.87 747.092 1066.92 750.258 1059 750.258H915.756ZM1064.54 575.356C1094.09 575.356 1117.83 557.945 1135.77 523.123C1154.23 488.301 1163.47 441.344 1163.47 382.252C1163.47 327.908 1155.55 286.491 1139.73 258C1123.9 229.509 1101.47 215.264 1072.46 215.264C1054.52 215.264 1038.95 222.65 1025.76 237.423C1012.57 252.196 1005.98 272.773 1005.98 299.154V498.589C1005.98 522.332 1011.25 541.062 1021.8 554.779C1032.88 568.497 1047.13 575.356 1064.54 575.356Z" fill="black"/>
<path d="M847.966 109.215C836.887 109.215 827.39 105.258 819.476 97.3436C812.089 89.4295 808.396 79.4049 808.396 67.2699C808.396 55.135 812.089 45.3742 819.476 37.9877C827.39 30.0736 836.887 26.1166 847.966 26.1166C859.046 26.1166 868.279 30.0736 875.666 37.9877C883.052 45.3742 886.746 55.135 886.746 67.2699C886.746 79.4049 883.052 89.4295 875.666 97.3436C868.279 105.258 859.046 109.215 847.966 109.215ZM781.488 588.019C773.574 588.019 769.617 585.117 769.617 579.313C769.617 574.565 773.046 571.399 779.905 569.816L789.402 568.233C802.592 566.123 811.034 562.957 814.727 558.737C818.42 553.988 820.267 546.074 820.267 534.994V269.08C820.267 259.583 818.684 253.252 815.519 250.086C812.881 246.393 807.868 244.019 800.482 242.963L783.862 240.589C777.003 240.061 773.574 237.16 773.574 231.884C773.574 227.663 777.795 224.761 786.236 223.178C802.592 220.54 815.782 216.319 825.807 210.515C835.831 204.712 845.592 197.589 855.089 189.147C859.838 184.399 863.795 182.025 866.96 182.025C871.709 182.025 874.083 185.19 874.083 191.522V534.994C874.083 546.074 875.666 553.988 878.831 558.737C881.997 563.485 888.065 566.387 897.034 567.442L916.819 569.816C922.623 570.871 925.525 573.773 925.525 578.522C925.525 584.853 921.568 588.019 913.654 588.019H781.488Z" fill="black"/>
<path d="M639.25 588.019C632.919 588.019 629.753 585.117 629.753 579.313C629.753 574.037 632.655 570.871 638.459 569.816L649.539 568.233C660.618 566.651 668.796 563.485 674.072 558.737C679.349 553.988 681.987 546.074 681.987 534.994V81.5154C681.987 72.0184 680.404 65.4233 677.238 61.7301C674.6 58.0368 669.588 55.9264 662.201 55.3988L643.999 53.0246C638.195 51.9694 635.293 48.8037 635.293 43.5276C635.293 38.2516 638.195 35.0859 643.999 34.0307C658.772 30.8651 671.434 27.1718 681.987 22.9509C692.539 18.7301 701.244 14.5092 708.103 10.2884C716.545 5.0123 722.876 2.37427 727.097 2.37427C732.901 2.37427 735.803 6.59513 735.803 15.0368V534.994C735.803 546.074 737.385 553.988 740.551 558.737C744.244 562.957 751.631 565.859 762.711 567.442L780.913 569.816C786.717 570.871 789.619 574.037 789.619 579.313C789.619 585.117 786.453 588.019 780.122 588.019H639.25Z" fill="black"/>
<path d="M560.69 595.141C533.782 595.141 511.887 573.246 495.003 529.454L451.476 414.7C446.199 402.037 439.604 395.706 431.69 395.706C423.776 395.706 416.917 402.301 411.114 415.491C405.837 427.098 400.034 442.927 393.702 462.976C387.899 482.497 382.359 503.865 377.083 527.08L365.212 579.313C363.629 585.117 359.936 588.019 354.132 588.019H323.267C315.88 588.019 312.978 584.589 314.561 577.73L430.107 81.5154C432.218 72.5461 432.218 66.2148 430.107 62.5215C427.997 58.3006 423.248 55.9264 415.862 55.3988L392.12 53.0246C384.206 51.9693 380.776 48.5399 381.831 42.7362C382.886 37.9878 386.58 35.0859 392.911 34.0307C415.598 30.3374 433.801 26.1166 447.518 21.3681C461.236 16.6196 471.788 11.0798 479.175 4.74846C483.396 1.58282 487.089 0 490.255 0C497.114 0 499.752 3.95705 498.169 11.8712L424.568 325.27C424.04 328.963 424.831 331.074 426.942 331.601C429.052 332.129 430.899 330.81 432.482 327.644L458.598 280.951C496.586 213.417 539.322 179.65 586.807 179.65C604.745 179.65 618.991 184.399 629.543 193.896C640.095 203.393 645.371 216.319 645.371 232.675C645.371 258.528 632.709 284.381 607.384 310.233C582.586 336.086 549.874 357.19 509.249 373.546C496.586 378.295 492.893 386.736 498.169 398.871L544.071 516C549.347 529.19 554.623 538.687 559.899 544.491C565.175 549.767 571.77 552.405 579.684 552.405C591.819 552.405 601.052 545.019 607.384 530.246C613.715 514.945 619.255 488.565 624.003 451.105C625.058 444.246 628.224 440.816 633.5 440.816C639.304 440.816 641.942 446.092 641.414 456.644C638.776 500.963 630.334 535.258 616.089 559.528C602.371 583.27 583.905 595.141 560.69 595.141ZM439.604 360.092C437.494 364.841 437.23 368.534 438.813 371.172C440.923 373.282 444.353 373.81 449.101 372.755C492.893 361.675 528.242 343.473 555.15 318.147C582.058 292.822 595.512 264.859 595.512 234.258C595.512 214.209 587.862 204.184 572.561 204.184C554.623 204.184 533.782 218.166 510.04 246.129C486.298 273.565 462.819 311.552 439.604 360.092Z" fill="black"/>
<path d="M194.687 595.141C155.644 595.141 121.35 583.006 91.8037 558.736C62.7853 534.466 40.0982 500.436 23.7423 456.644C7.91411 412.325 0 360.092 0 299.945C0 241.908 8.70553 191.258 26.1166 147.994C44.0552 104.202 67.7976 70.4356 97.3436 46.6933C127.417 22.4233 160.657 10.2883 197.061 10.2883C218.693 10.2883 237.687 12.3987 254.043 16.6196C270.399 20.3129 284.908 25.3251 297.571 31.6564C303.902 35.3497 307.068 40.8896 307.068 48.2761L309.442 168.571C309.442 177.54 306.276 182.025 299.945 182.025C294.141 182.025 290.448 178.595 288.865 171.736L280.951 142.454C269.871 101.301 256.945 72.8098 242.172 56.9816C227.926 41.1534 210.779 33.2392 190.73 33.2392C153.798 33.2392 122.933 56.1902 98.135 102.092C73.8651 147.466 61.7301 213.417 61.7301 299.945C61.7301 359.037 67.7976 408.896 79.9326 449.522C92.5951 490.147 108.687 520.749 128.209 541.325C148.258 561.902 169.362 572.19 191.522 572.19C215.264 572.19 234.258 564.804 248.503 550.031C263.276 535.258 275.675 506.767 285.7 464.558L295.196 425.779C296.779 417.865 301 414.436 307.859 415.491C313.663 416.546 316.565 421.031 316.565 428.945L313.399 557.154C313.399 564.54 309.97 570.08 303.111 573.773C290.448 580.105 275.411 585.117 258 588.81C241.117 593.031 220.012 595.141 194.687 595.141Z" fill="black"/>
</svg>
